<svg width="1440" height="560" viewBox="0 0 1440 560" fill="none" xmlns="http://www.w3.org/2000/svg">
<rect width="1440" height="559.365" fill="#183B56"/>
<mask id="mask0_126_3955" style="mask-type:luminance" maskUnits="userSpaceOnUse" x="0" y="0" width="1440" height="560">
<rect width="1440" height="559.365" fill="white"/>
</mask>
<g mask="url(#mask0_126_3955)">
<path opacity="0.15" fill-rule="evenodd" clip-rule="evenodd" d="M-100 337.131C227.505 337.131 493 136.443 493 -111.117C493 -358.678 227.505 -559.365 -100 -559.365C-427.505 -559.365 -693 -358.678 -693 -111.117C-693 136.443 -427.505 337.131 -100 337.131ZM-100 185.951C-317.048 185.951 -493 52.9492 -493 -111.117C-493 -275.183 -317.048 -408.185 -100 -408.185C117.048 -408.185 293 -275.183 293 -111.117C293 52.9492 117.048 185.951 -100 185.951Z" fill="url(#paint0_linear_126_3955)"/>
<path opacity="0.15" fill-rule="evenodd" clip-rule="evenodd" d="M1561 991.739C1888.5 991.739 2154 791.052 2154 543.491C2154 295.931 1888.5 95.2432 1561 95.2432C1233.5 95.2432 968 295.931 968 543.491C968 791.052 1233.5 991.739 1561 991.739ZM1561 840.559C1343.95 840.559 1168 707.557 1168 543.491C1168 379.425 1343.95 246.423 1561 246.423C1778.05 246.423 1954 379.425 1954 543.491C1954 707.557 1778.05 840.559 1561 840.559Z" fill="url(#paint1_linear_126_3955)"/>
</g>
<defs>
<linearGradient id="paint0_linear_126_3955" x1="493" y1="-558.17" x2="-689.838" y2="-558.17" gradientUnits="userSpaceOnUse">
<stop stop-color="white" stop-opacity="0.01"/>
<stop offset="1" stop-color="white"/>
</linearGradient>
<linearGradient id="paint1_linear_126_3955" x1="2154" y1="96.4382" x2="971.162" y2="96.4382" gradientUnits="userSpaceOnUse">
<stop stop-color="white"/>
<stop offset="1" stop-color="white" stop-opacity="0.01"/>
</linearGradient>
</defs>
</svg>
