<svg width="116" height="33" viewBox="0 0 116 33" fill="none" xmlns="http://www.w3.org/2000/svg">
<path d="M0.672852 7.88094C0.672852 4.2249 3.98765 1.26111 8.0767 1.26111C12.1657 1.26111 15.4805 4.2249 15.4805 7.88094V9.6722C14.2407 9.22856 12.8873 8.98425 11.4701 8.98425C5.50692 8.98425 0.672852 13.3064 0.672852 18.6382V7.88094Z" fill="#014D6E"/>
<path fill-rule="evenodd" clip-rule="evenodd" d="M11.4421 28.3896C17.3898 28.3896 22.2113 24.0234 22.2113 18.6374C22.2113 13.2515 17.3898 8.88531 11.4421 8.88531C5.4944 8.88531 0.672852 13.2515 0.672852 18.6374C0.672852 24.0234 5.4944 28.3896 11.4421 28.3896ZM11.4421 23.6528C14.5009 23.6528 16.9805 21.4074 16.9805 18.6374C16.9805 15.8675 14.5009 13.6221 11.4421 13.6221C8.38328 13.6221 5.90362 15.8675 5.90362 18.6374C5.90362 21.4074 8.38328 23.6528 11.4421 23.6528Z" fill="#191B23"/>
<g clip-path="url(#clip0_126_4252)">
<path d="M11.4998 25.5834C15.412 25.5834 18.5832 22.4121 18.5832 18.5C18.5832 14.5879 15.412 11.4167 11.4998 11.4167C7.58771 11.4167 4.4165 14.5879 4.4165 18.5C4.4165 22.4121 7.58771 25.5834 11.4998 25.5834Z" stroke="#014D6E" stroke-width="1.33333" stroke-linejoin="round"/>
<path d="M10.083 18.5001V16.0464L12.208 17.2732L14.333 18.5001L12.208 19.7269L10.083 20.9537V18.5001Z" stroke="#014D6E" stroke-width="1.33333" stroke-linejoin="round"/>
</g>
<path d="M28.632 28V26.292H30.956C31.3853 26.292 31.7213 26.166 31.964 25.914C32.2067 25.662 32.328 25.354 32.328 24.99C32.328 24.738 32.272 24.514 32.16 24.318C32.048 24.122 31.8893 23.968 31.684 23.856C31.488 23.744 31.2453 23.688 30.956 23.688H28.632V22.022H30.774C31.138 22.022 31.432 21.9333 31.656 21.756C31.88 21.5693 31.992 21.2893 31.992 20.916C31.992 20.552 31.88 20.2813 31.656 20.104C31.432 19.9173 31.138 19.824 30.774 19.824H28.632V18.116H31.194C31.8287 18.116 32.3653 18.2327 32.804 18.466C33.252 18.6993 33.5927 19.012 33.826 19.404C34.0593 19.796 34.176 20.23 34.176 20.706C34.176 21.3127 33.98 21.826 33.588 22.246C33.196 22.666 32.6173 22.9553 31.852 23.114L31.908 22.372C32.7387 22.5307 33.378 22.8527 33.826 23.338C34.2833 23.8233 34.512 24.4207 34.512 25.13C34.512 25.6713 34.3767 26.1613 34.106 26.6C33.8447 27.0293 33.462 27.37 32.958 27.622C32.4633 27.874 31.866 28 31.166 28H28.632ZM26.952 28V18.116H29.122V28H26.952ZM38.7488 28.154C38.1234 28.154 37.5681 28.028 37.0828 27.776C36.6068 27.5147 36.2334 27.16 35.9628 26.712C35.6921 26.2547 35.5568 25.732 35.5568 25.144V21.196H37.6988V25.116C37.6988 25.3493 37.7361 25.55 37.8108 25.718C37.8948 25.886 38.0161 26.0167 38.1748 26.11C38.3334 26.2033 38.5248 26.25 38.7488 26.25C39.0661 26.25 39.3181 26.152 39.5048 25.956C39.6914 25.7507 39.7848 25.4707 39.7848 25.116V21.196H41.9268V25.13C41.9268 25.7273 41.7914 26.2547 41.5208 26.712C41.2501 27.16 40.8768 27.5147 40.4008 27.776C39.9248 28.028 39.3741 28.154 38.7488 28.154ZM42.8376 26.74L46.2536 22.442H48.8576L45.4416 26.74H42.8376ZM42.8376 28V26.74L44.3636 26.208H48.7736V28H42.8376ZM43.0896 22.988V21.196H48.8576V22.442L47.3456 22.988H43.0896ZM49.5779 26.74L52.9939 22.442H55.5979L52.1819 26.74H49.5779ZM49.5779 28V26.74L51.1039 26.208H55.5139V28H49.5779ZM49.8299 22.988V21.196H55.5979V22.442L54.0859 22.988H49.8299ZM58.6281 23.926V22.302H60.7141C61.1528 22.302 61.4888 22.19 61.7221 21.966C61.9648 21.742 62.0861 21.4387 62.0861 21.056C62.0861 20.7013 61.9694 20.4073 61.7361 20.174C61.5028 19.9407 61.1668 19.824 60.7281 19.824H58.6281V18.116H60.9801C61.6334 18.116 62.2074 18.242 62.7021 18.494C63.1968 18.7367 63.5841 19.0773 63.8641 19.516C64.1441 19.9547 64.2841 20.4587 64.2841 21.028C64.2841 21.6067 64.1441 22.1153 63.8641 22.554C63.5841 22.9833 63.1921 23.3193 62.6881 23.562C62.1841 23.8047 61.5914 23.926 60.9101 23.926H58.6281ZM56.9481 28V18.116H59.1461V28H56.9481ZM62.3241 28L59.2441 23.744L61.2601 23.198L64.9281 28H62.3241ZM68.7918 28.154C68.0918 28.154 67.4571 28 66.8878 27.692C66.3278 27.3747 65.8844 26.9453 65.5578 26.404C65.2311 25.8627 65.0678 25.256 65.0678 24.584C65.0678 23.912 65.2311 23.31 65.5578 22.778C65.8844 22.246 66.3278 21.826 66.8878 21.518C67.4478 21.2007 68.0824 21.042 68.7918 21.042C69.5011 21.042 70.1358 21.196 70.6958 21.504C71.2558 21.812 71.6991 22.2367 72.0258 22.778C72.3524 23.31 72.5158 23.912 72.5158 24.584C72.5158 25.256 72.3524 25.8627 72.0258 26.404C71.6991 26.9453 71.2558 27.3747 70.6958 27.692C70.1358 28 69.5011 28.154 68.7918 28.154ZM68.7918 26.208C69.0998 26.208 69.3704 26.1427 69.6038 26.012C69.8371 25.872 70.0144 25.6807 70.1358 25.438C70.2664 25.186 70.3318 24.9013 70.3318 24.584C70.3318 24.2667 70.2664 23.9913 70.1358 23.758C70.0051 23.5153 69.8231 23.3287 69.5898 23.198C69.3658 23.058 69.0998 22.988 68.7918 22.988C68.4931 22.988 68.2271 23.058 67.9938 23.198C67.7604 23.3287 67.5784 23.5153 67.4478 23.758C67.3171 24.0007 67.2518 24.2807 67.2518 24.598C67.2518 24.906 67.3171 25.186 67.4478 25.438C67.5784 25.6807 67.7604 25.872 67.9938 26.012C68.2271 26.1427 68.4931 26.208 68.7918 26.208ZM76.8582 28.154C76.1582 28.154 75.5235 28 74.9542 27.692C74.3942 27.3747 73.9508 26.9453 73.6242 26.404C73.2975 25.8627 73.1342 25.256 73.1342 24.584C73.1342 23.912 73.2975 23.31 73.6242 22.778C73.9508 22.246 74.3942 21.826 74.9542 21.518C75.5142 21.2007 76.1488 21.042 76.8582 21.042C77.5675 21.042 78.2022 21.196 78.7622 21.504C79.3222 21.812 79.7655 22.2367 80.0922 22.778C80.4188 23.31 80.5822 23.912 80.5822 24.584C80.5822 25.256 80.4188 25.8627 80.0922 26.404C79.7655 26.9453 79.3222 27.3747 78.7622 27.692C78.2022 28 77.5675 28.154 76.8582 28.154ZM76.8582 26.208C77.1662 26.208 77.4368 26.1427 77.6702 26.012C77.9035 25.872 78.0808 25.6807 78.2022 25.438C78.3328 25.186 78.3982 24.9013 78.3982 24.584C78.3982 24.2667 78.3328 23.9913 78.2022 23.758C78.0715 23.5153 77.8895 23.3287 77.6562 23.198C77.4322 23.058 77.1662 22.988 76.8582 22.988C76.5595 22.988 76.2935 23.058 76.0602 23.198C75.8268 23.3287 75.6448 23.5153 75.5142 23.758C75.3835 24.0007 75.3182 24.2807 75.3182 24.598C75.3182 24.906 75.3835 25.186 75.5142 25.438C75.6448 25.6807 75.8268 25.872 76.0602 26.012C76.2935 26.1427 76.5595 26.208 76.8582 26.208ZM81.6486 28V21.196H83.7906V28H81.6486ZM86.0026 28V24.024C86.0026 23.6787 85.8952 23.4127 85.6806 23.226C85.4752 23.03 85.2186 22.932 84.9106 22.932C84.6959 22.932 84.5046 22.9787 84.3366 23.072C84.1686 23.156 84.0332 23.2773 83.9306 23.436C83.8372 23.5947 83.7906 23.7907 83.7906 24.024L82.9646 23.66C82.9646 23.1187 83.0812 22.6567 83.3146 22.274C83.5479 21.882 83.8652 21.5833 84.2666 21.378C84.6679 21.1633 85.1206 21.056 85.6246 21.056C86.1006 21.056 86.5252 21.1633 86.8986 21.378C87.2812 21.5927 87.5846 21.8913 87.8086 22.274C88.0326 22.6567 88.1446 23.114 88.1446 23.646V28H86.0026ZM90.3566 28V24.024C90.3566 23.6787 90.2492 23.4127 90.0346 23.226C89.8292 23.03 89.5726 22.932 89.2646 22.932C89.0499 22.932 88.8586 22.9787 88.6906 23.072C88.5226 23.156 88.3872 23.2773 88.2846 23.436C88.1912 23.5947 88.1446 23.7907 88.1446 24.024L86.9126 23.856C86.9312 23.2773 87.0666 22.7827 87.3186 22.372C87.5799 21.952 87.9206 21.63 88.3406 21.406C88.7699 21.1727 89.2506 21.056 89.7826 21.056C90.3052 21.056 90.7672 21.168 91.1686 21.392C91.5792 21.6067 91.9012 21.9193 92.1346 22.33C92.3772 22.7313 92.4986 23.2167 92.4986 23.786V28H90.3566Z" fill="#014D6E"/>
<defs>
<clipPath id="clip0_126_4252">
<rect width="17" height="17" fill="white" transform="translate(3 10)"/>
</clipPath>
</defs>
</svg>
