<svg width="1440" height="740" viewBox="0 0 1440 740" fill="none" xmlns="http://www.w3.org/2000/svg">
<rect x="-80" width="1600" height="740" fill="#183B56"/>
<mask id="mask0_124_3760" style="mask-type:luminance" maskUnits="userSpaceOnUse" x="-80" y="0" width="1600" height="740">
<rect x="-80" width="1600" height="740" fill="white"/>
</mask>
<g mask="url(#mask0_124_3760)">
<path opacity="0.15" fill-rule="evenodd" clip-rule="evenodd" d="M-191.111 446C172.783 446 467.778 180.505 467.778 -147C467.778 -474.505 172.783 -740 -191.111 -740C-555.005 -740 -850 -474.505 -850 -147C-850 180.505 -555.005 446 -191.111 446ZM-191.111 246C-432.275 246 -627.778 70.0479 -627.778 -147C-627.778 -364.048 -432.275 -540 -191.111 -540C50.0532 -540 245.556 -364.048 245.556 -147C245.556 70.0479 50.0532 246 -191.111 246Z" fill="url(#paint0_linear_124_3760)"/>
<path opacity="0.15" fill-rule="evenodd" clip-rule="evenodd" d="M1654.44 1312C2018.34 1312 2313.33 1046.5 2313.33 719C2313.33 391.495 2018.34 126 1654.44 126C1290.55 126 995.556 391.495 995.556 719C995.556 1046.5 1290.55 1312 1654.44 1312ZM1654.44 1112C1413.28 1112 1217.78 936.048 1217.78 719C1217.78 501.952 1413.28 326 1654.44 326C1895.61 326 2091.11 501.952 2091.11 719C2091.11 936.048 1895.61 1112 1654.44 1112Z" fill="url(#paint1_linear_124_3760)"/>
</g>
<path fill-rule="evenodd" clip-rule="evenodd" d="M1520 740H-80V565C186.667 618.333 453.333 645 720 645C986.667 645 1253.33 618.333 1520 565V740Z" fill="white"/>
<defs>
<linearGradient id="paint0_linear_124_3760" x1="467.778" y1="-738.419" x2="-846.487" y2="-738.419" gradientUnits="userSpaceOnUse">
<stop stop-color="white" stop-opacity="0.01"/>
<stop offset="1" stop-color="white"/>
</linearGradient>
<linearGradient id="paint1_linear_124_3760" x1="2313.33" y1="127.581" x2="999.069" y2="127.581" gradientUnits="userSpaceOnUse">
<stop stop-color="white"/>
<stop offset="1" stop-color="white" stop-opacity="0.01"/>
</linearGradient>
</defs>
</svg>
